<?xml version="1.0" encoding="utf-8"?>
<!-- Generator: Adobe Illustrator 24.1.2, SVG Export Plug-In . SVG Version: 6.00 Build 0)  -->
<svg version="1.1"
	 id="svg5" inkscape:version="1.1 (ce6663b3b7, 2021-05-25)" sodipodi:docname="card_template.svg" xmlns:inkscape="http://www.inkscape.org/namespaces/inkscape" xmlns:sodipodi="http://sodipodi.sourceforge.net/DTD/sodipodi-0.dtd" xmlns:svg="http://www.w3.org/2000/svg"
	 xmlns="http://www.w3.org/2000/svg" xmlns:xlink="http://www.w3.org/1999/xlink" x="0px" y="0px" viewBox="0 0 595.3 841.9"
	 style="enable-background:new 0 0 595.3 841.9;" xml:space="preserve">
<style type="text/css">
	.st0{fill:#FF3B26;}
	.st1{fill:none;stroke:#000000;stroke-width:1.5;stroke-miterlimit:3;}
	.st2{fill:#FFFFFF;}
	.st3{fill:url(#rect193_1_);stroke:#7D7D7D;stroke-width:1.5;stroke-miterlimit:11.3386;}
	.st4{fill:url(#path1282_1_);stroke:#7D7D7D;stroke-width:0.75;stroke-miterlimit:11.3386;}
	.st5{fill:url(#path1284_1_);stroke:#7D7D7D;stroke-width:0.75;stroke-miterlimit:11.3386;}
	.st6{fill:url(#path1286_1_);stroke:#7D7D7D;stroke-width:0.75;stroke-miterlimit:11.3386;}
	.st7{fill:url(#path1288_1_);stroke:#7D7D7D;stroke-width:0.75;stroke-miterlimit:11.3386;}
	.st8{fill:url(#path1573_1_);stroke:#7D7D7D;stroke-width:0.75;stroke-miterlimit:11.3386;}
	.st9{fill:url(#path1577_1_);stroke:#7D7D7D;stroke-width:0.75;stroke-miterlimit:11.3386;}
	.st10{fill:url(#path1581_1_);stroke:#7D7D7D;stroke-width:0.75;stroke-miterlimit:11.3386;}
	.st11{fill:url(#path1585_1_);stroke:#7D7D7D;stroke-width:0.75;stroke-miterlimit:11.3386;}
	.st12{fill:url(#path1589_1_);stroke:#7D7D7D;stroke-width:0.75;stroke-miterlimit:11.3386;}
	.st13{fill:url(#path1593_1_);stroke:#7D7D7D;stroke-width:0.75;stroke-miterlimit:11.3386;}
	.st14{fill:url(#path1619_1_);stroke:#7D7D7D;stroke-width:1.5;stroke-miterlimit:11.3386;}
</style>
<sodipodi:namedview  bordercolor="#666666" borderopacity="1.0" id="namedview7" inkscape:current-layer="layer1" inkscape:cx="-325.94057" inkscape:cy="282.03148" inkscape:document-units="mm" inkscape:pagecheckerboard="0" inkscape:pageopacity="0.0" inkscape:pageshadow="2" inkscape:window-height="704" inkscape:window-maximized="1" inkscape:window-width="1366" inkscape:window-x="0" inkscape:window-y="0" inkscape:zoom="0.29606624" pagecolor="#ffffff" showgrid="false">
	</sodipodi:namedview>
<defs>
	<inkscape:path-effect  effect="spiro" id="path-effect1595" is_visible="true" lpeversion="1"></inkscape:path-effect>
	<inkscape:path-effect  effect="spiro" id="path-effect1591" is_visible="true" lpeversion="1"></inkscape:path-effect>
	<inkscape:path-effect  effect="spiro" id="path-effect1587" is_visible="true" lpeversion="1"></inkscape:path-effect>
	<inkscape:path-effect  effect="spiro" id="path-effect1583" is_visible="true" lpeversion="1"></inkscape:path-effect>
	<inkscape:path-effect  effect="spiro" id="path-effect1579" is_visible="true" lpeversion="1"></inkscape:path-effect>
	<inkscape:path-effect  effect="spiro" id="path-effect1575" is_visible="true" lpeversion="1"></inkscape:path-effect>
</defs>
<polyline id="rect1727_1_" class="st0" points="375.2,-0.7 422.7,-0.7 422.7,264.8 0.5,264.8 0.5,-0.7 274.2,-0.7 "/>
<path id="rect1850" class="st1" d="M0,0L0,0L0,0z"/>
<polygon class="st2" points="369.9,127.9 352.4,158.5 352.4,158.5 369.8,127.8 "/>
<g>
	<rect x="271.5" y="57" transform="matrix(0.869 0.4948 -0.4948 0.869 118.464 -121.7426)" width="35.2" height="211.7"/>
	<path class="st2" d="M343.8,31.5l17.3-30.3l-30.6-17.4L191,228.7l30.6,17.4l69.8-122.5l30.4,17.3L234.7,294l30.6,17.4l87.1-152.9
		l17.4-30.6l17.6-30.9l0,0l17.4-30.6L343.8,31.5z M339.2,110.4l-30.4-17.3l17.6-30.9l30.4,17.3L339.2,110.4z"/>
	<rect x="22.2" y="-2.7" transform="matrix(0.869 0.4948 -0.4948 0.869 55.948 -6.2841)" class="st2" width="35.2" height="210.4"/>
	<rect x="226.9" y="-41.6" transform="matrix(0.869 0.4948 -0.4948 0.869 80.7281 -108.2185)" width="35.7" height="279.9"/>
	
		<rect x="100.5" y="36.6" transform="matrix(0.869 0.4948 -0.4948 0.869 68.4455 -44.4016)" class="st2" width="35.2" height="140.8"/>
	
		<rect x="161.4" y="71.4" transform="matrix(0.869 0.4948 -0.4948 0.869 93.6137 -70.0233)" class="st2" width="35.2" height="140.8"/>
	<rect x="131.3" y="54.2" transform="matrix(0.869 0.4948 -0.4948 0.869 81.1743 -57.3598)" width="35.2" height="140.8"/>
	<rect x="70.3" y="19.5" transform="matrix(0.869 0.4948 -0.4948 0.869 55.9976 -31.7295)" width="35.2" height="140.8"/>
	<rect x="384.8" y="70.2" transform="matrix(0.869 0.4948 -0.4948 0.869 105.0646 -185.2602)" width="35.2" height="71.1"/>
</g>
<g id="g2469">
	<linearGradient id="rect193_1_" gradientUnits="userSpaceOnUse" x1="54.5321" y1="133.548" x2="98.8697" y2="89.2103">
		<stop  offset="2.237672e-07" style="stop-color:#919191"/>
		<stop  offset="1" style="stop-color:#383838"/>
	</linearGradient>
	<path id="rect193" class="st3" d="M55,91h43.4c3.1,0,5.5,2.5,5.5,5.5v29.7c0,3.1-2.5,5.5-5.5,5.5H55c-3.1,0-5.5-2.5-5.5-5.5V96.6
		C49.5,93.5,52,91,55,91z"/>
	<linearGradient id="path1282_1_" gradientUnits="userSpaceOnUse" x1="53.7384" y1="109.0667" x2="61.6384" y2="101.1667">
		<stop  offset="2.237672e-07" style="stop-color:#919191"/>
		<stop  offset="1" style="stop-color:#383838"/>
	</linearGradient>
	<path id="path1282" class="st4" d="M49.8,105.1h15.8"/>
	<linearGradient id="path1284_1_" gradientUnits="userSpaceOnUse" x1="53.5634" y1="121.5917" x2="61.3134" y2="113.8417">
		<stop  offset="2.237672e-07" style="stop-color:#919191"/>
		<stop  offset="1" style="stop-color:#383838"/>
	</linearGradient>
	<path id="path1284" class="st5" d="M49.7,117.7h15.5"/>
	<linearGradient id="path1286_1_" gradientUnits="userSpaceOnUse" x1="92.3884" y1="108.9167" x2="99.9884" y2="101.3167">
		<stop  offset="2.237672e-07" style="stop-color:#919191"/>
		<stop  offset="1" style="stop-color:#383838"/>
	</linearGradient>
	<path id="path1286" sodipodi:nodetypes="cc" class="st6" d="M103.8,105.1H88.6"/>
	<linearGradient id="path1288_1_" gradientUnits="userSpaceOnUse" x1="92.4884" y1="121.7167" x2="100.2884" y2="113.9167">
		<stop  offset="2.237672e-07" style="stop-color:#919191"/>
		<stop  offset="1" style="stop-color:#383838"/>
	</linearGradient>
	<path id="path1288" class="st7" d="M104.2,117.8H88.6"/>
	<linearGradient id="path1573_1_" gradientUnits="userSpaceOnUse" x1="62.1384" y1="114.6667" x2="68.6384" y2="108.1667">
		<stop  offset="2.237672e-07" style="stop-color:#919191"/>
		<stop  offset="1" style="stop-color:#383838"/>
	</linearGradient>
	
		<path id="path1573" inkscape:original-d="m 40.507658,55.91984 c 0.1711,0.751639 0.341934,1.503016 0.512505,2.254129 0.170569,0.751109 -0.435514,1.453133 -0.653669,2.179304" inkscape:path-effect="#path-effect1575" class="st8" d="
		M65.6,105.1c1,2,1.5,4.2,1.5,6.4c-0.1,2.2-0.7,4.3-1.9,6.2"/>
	<linearGradient id="path1577_1_" gradientUnits="userSpaceOnUse" x1="85.4634" y1="114.6917" x2="92.0134" y2="108.1417">
		<stop  offset="2.237672e-07" style="stop-color:#919191"/>
		<stop  offset="1" style="stop-color:#383838"/>
	</linearGradient>
	
		<path id="path1577" inkscape:original-d="m 48.724401,55.881732 c -0.2257,0.678564 -0.451662,1.356866 -0.677889,2.034903 -0.226226,0.678037 0.373409,1.657498 0.559716,2.48585" inkscape:path-effect="#path-effect1579" class="st9" d="
		M88.9,105c-1.1,1.7-1.8,3.7-1.9,5.8c-0.2,2.4,0.4,4.9,1.6,7"/>
	<linearGradient id="path1581_1_" gradientUnits="userSpaceOnUse" x1="69.4345" y1="125.9705" x2="71.4384" y2="123.9667">
		<stop  offset="2.237672e-07" style="stop-color:#919191"/>
		<stop  offset="1" style="stop-color:#383838"/>
	</linearGradient>
	
		<path id="path1581" inkscape:original-d="m 40.366494,60.353273 c 0.407604,0.83063 0.814946,1.660993 1.222021,2.491094 0.407077,0.830101 1.821958,1.570897 2.73254,2.355951" inkscape:path-effect="#path-effect1583" class="st10" d="
		M65.2,117.7c0.7,2.5,1.9,4.9,3.5,7.1c2,2.8,4.7,5.1,7.7,6.7"/>
	<linearGradient id="path1585_1_" gradientUnits="userSpaceOnUse" x1="76.5693" y1="131.5975" x2="89.4693" y2="118.6975">
		<stop  offset="2.237672e-07" style="stop-color:#919191"/>
		<stop  offset="1" style="stop-color:#383838"/>
	</linearGradient>
	
		<path id="path1585" inkscape:original-d="m 48.606228,60.402485 c -0.442201,0.83099 -0.884664,1.661716 -1.327394,2.492177 -0.442727,0.830461 -1.971587,1.537369 -2.957779,2.305656" inkscape:path-effect="#path-effect1587" class="st11" d="
		M88.6,117.8c-0.8,2.6-2.1,5-3.8,7.1c-2.2,2.8-5.1,5.1-8.4,6.5"/>
	<linearGradient id="path1589_1_" gradientUnits="userSpaceOnUse" x1="64.2693" y1="103.7976" x2="75.5193" y2="92.5476">
		<stop  offset="2.237672e-07" style="stop-color:#919191"/>
		<stop  offset="1" style="stop-color:#383838"/>
	</linearGradient>
	
		<path id="path1589" inkscape:original-d="m 40.507658,55.91984 c 0.383846,-0.90837 0.767429,-1.817005 1.150744,-2.725904 0.383318,-0.908899 1.272323,-1.429567 1.908088,-2.144747" inkscape:path-effect="#path-effect1591" class="st12" d="
		M65.6,105.1c0.6-2.7,1.8-5.4,3.3-7.7s3.3-4.4,5.4-6.1"/>
	<linearGradient id="path1593_1_" gradientUnits="userSpaceOnUse" x1="82.2884" y1="95.2167" x2="82.908" y2="94.597">
		<stop  offset="2.237672e-07" style="stop-color:#919191"/>
		<stop  offset="1" style="stop-color:#383838"/>
	</linearGradient>
	
		<path id="path1593" inkscape:original-d="m 45.427341,51.057029 c 0.369859,0.390327 0.838369,0.895506 1.207699,1.285301 0.369332,0.389797 0.615725,0.839218 0.923189,1.258432" inkscape:path-effect="#path-effect1595" sodipodi:nodetypes="csc" class="st13" d="
		M79.6,91.3c1.2,1.1,2.4,2.4,3.4,3.6c0.9,1.1,1.8,2.3,2.6,3.6"/>
	<linearGradient id="path1619_1_" gradientUnits="userSpaceOnUse" x1="76.2934" y1="94.6116" x2="77.2834" y2="93.6217">
		<stop  offset="2.237672e-07" style="stop-color:#919191"/>
		<stop  offset="1" style="stop-color:#383838"/>
	</linearGradient>
	<ellipse id="path1619" class="st14" cx="76.8" cy="94.1" rx="0.7" ry="0.7"/>
</g>
</svg>
