<?xml version="1.0" encoding="utf-8"?>
<!-- Generator: Adobe Illustrator 24.1.2, SVG Export Plug-In . SVG Version: 6.00 Build 0)  -->
<svg version="1.1"
	 id="svg5" inkscape:version="1.1 (ce6663b3b7, 2021-05-25)" sodipodi:docname="card_template.svg" xmlns:inkscape="http://www.inkscape.org/namespaces/inkscape" xmlns:sodipodi="http://sodipodi.sourceforge.net/DTD/sodipodi-0.dtd" xmlns:svg="http://www.w3.org/2000/svg"
	 xmlns="http://www.w3.org/2000/svg" xmlns:xlink="http://www.w3.org/1999/xlink" x="0px" y="0px" viewBox="0 0 595.3 841.9"
	 style="enable-background:new 0 0 595.3 841.9;" xml:space="preserve">
<style type="text/css">
	.st0{fill:none;}
	.st1{fill:#383838;}
	.st2{fill:#303030;}
	.st3{fill:#494949;}
	.st4{fill:url(#Новый_узор);}
	.st5{fill:none;stroke:#000000;stroke-width:1.5;stroke-miterlimit:3;}
	.st6{fill:#595959;stroke:#000000;stroke-width:1.5;stroke-miterlimit:11.3386;}
	.st7{fill:#595959;stroke:#000000;stroke-width:0.75;stroke-miterlimit:11.3386;}
</style>
<pattern  y="841.9" width="182.6" height="316.6" patternUnits="userSpaceOnUse" id="Новый_узор" viewBox="106.5 -369.4 182.6 316.6" style="overflow:visible;">
	<g>
		<rect x="106.5" y="-369.4" class="st0" width="182.6" height="316.6"/>
		<g>
			<polygon class="st1" points="274,-105.6 213,-105.6 182.6,-52.8 213,0 274,0 304.5,-52.8 			"/>
			<polygon class="st2" points="365.5,-158.4 304.5,-158.4 274,-105.6 304.5,-52.8 365.5,-52.8 395.9,-105.6 			"/>
		</g>
		<g>
			<polygon class="st1" points="91.4,-105.6 30.5,-105.6 0,-52.8 30.5,0 91.4,0 121.9,-52.8 			"/>
			<polygon class="st2" points="182.9,-158.4 121.9,-158.4 91.5,-105.6 121.9,-52.8 182.9,-52.8 213.4,-105.6 			"/>
		</g>
		<g>
			<polygon class="st1" points="365.3,-263.9 304.3,-263.9 273.8,-211.1 304.3,-158.3 365.3,-158.3 395.8,-211.1 			"/>
		</g>
		<g>
			<polygon class="st1" points="182.7,-263.9 121.8,-263.9 91.3,-211.1 121.8,-158.3 182.7,-158.3 213.2,-211.1 			"/>
			<polygon class="st2" points="274.2,-316.7 213.2,-316.7 182.7,-263.9 213.2,-211.1 274.2,-211.1 304.7,-263.9 			"/>
			<polygon class="st3" points="274.2,-211.1 213.2,-211.1 182.7,-158.3 213.2,-105.5 274.2,-105.5 304.7,-158.3 			"/>
		</g>
		<g>
			<polygon class="st2" points="91.6,-316.7 30.7,-316.7 0.2,-263.9 30.7,-211.1 91.6,-211.1 122.1,-263.9 			"/>
			<polygon class="st3" points="91.6,-211.1 30.7,-211.1 0.2,-158.3 30.7,-105.5 91.6,-105.5 122.1,-158.3 			"/>
		</g>
		<g>
			<polygon class="st1" points="274,-422.2 213,-422.2 182.6,-369.4 213,-316.6 274,-316.6 304.5,-369.4 			"/>
			<polygon class="st3" points="365.5,-369.4 304.5,-369.4 274,-316.6 304.5,-263.8 365.5,-263.8 395.9,-316.6 			"/>
		</g>
		<g>
			<polygon class="st1" points="91.4,-422.2 30.5,-422.2 0,-369.4 30.5,-316.6 91.4,-316.6 121.9,-369.4 			"/>
			<polygon class="st3" points="182.9,-369.4 121.9,-369.4 91.5,-316.6 121.9,-263.8 182.9,-263.8 213.4,-316.6 			"/>
		</g>
	</g>
</pattern>
<sodipodi:namedview  bordercolor="#666666" borderopacity="1.0" id="namedview7" inkscape:current-layer="layer1" inkscape:cx="-325.94057" inkscape:cy="282.03148" inkscape:document-units="mm" inkscape:pagecheckerboard="0" inkscape:pageopacity="0.0" inkscape:pageshadow="2" inkscape:window-height="704" inkscape:window-maximized="1" inkscape:window-width="1366" inkscape:window-x="0" inkscape:window-y="0" inkscape:zoom="0.29606624" pagecolor="#ffffff" showgrid="false">
	</sodipodi:namedview>
<defs>
	<inkscape:path-effect  effect="spiro" id="path-effect1595" is_visible="true" lpeversion="1"></inkscape:path-effect>
	<inkscape:path-effect  effect="spiro" id="path-effect1591" is_visible="true" lpeversion="1"></inkscape:path-effect>
	<inkscape:path-effect  effect="spiro" id="path-effect1587" is_visible="true" lpeversion="1"></inkscape:path-effect>
	<inkscape:path-effect  effect="spiro" id="path-effect1583" is_visible="true" lpeversion="1"></inkscape:path-effect>
	<inkscape:path-effect  effect="spiro" id="path-effect1579" is_visible="true" lpeversion="1"></inkscape:path-effect>
	<inkscape:path-effect  effect="spiro" id="path-effect1575" is_visible="true" lpeversion="1"></inkscape:path-effect>
</defs>
<rect id="rect1727" y="0" class="st4" width="422.2" height="265.5"/>
<polygon id="rect1850" class="st5" points="0,0 0,0 0,0 "/>
<g id="g2469">
	<path id="rect193" class="st6" d="M54.5,91.7h43.4c3.1,0,5.5,2.5,5.5,5.5V127c0,3.1-2.5,5.5-5.5,5.5H54.5c-3.1,0-5.5-2.5-5.5-5.5
		V97.3C49,94.2,51.5,91.7,54.5,91.7z"/>
	<path id="path1282" class="st7" d="M49.3,105.8h15.8"/>
	<path id="path1284" class="st7" d="M49.2,118.4h15.5"/>
	<path id="path1286" sodipodi:nodetypes="cc" class="st7" d="M103.3,105.8l-15.2,0"/>
	<path id="path1288" class="st7" d="M103.6,118.5H88.1"/>
	
		<path id="path1573" inkscape:original-d="m 40.507658,55.91984 c 0.1711,0.751639 0.341934,1.503016 0.512505,2.254129 0.170569,0.751109 -0.435514,1.453133 -0.653669,2.179304" inkscape:path-effect="#path-effect1575" class="st7" d="
		M65.1,105.8c1,2,1.5,4.2,1.5,6.4c-0.1,2.2-0.7,4.3-1.9,6.2"/>
	
		<path id="path1577" inkscape:original-d="m 48.724401,55.881732 c -0.2257,0.678564 -0.451662,1.356866 -0.677889,2.034903 -0.226226,0.678037 0.373409,1.657498 0.559716,2.48585" inkscape:path-effect="#path-effect1579" class="st7" d="
		M88.4,105.7c-1.1,1.7-1.8,3.7-1.9,5.8c-0.2,2.4,0.4,4.9,1.6,7"/>
	
		<path id="path1581" inkscape:original-d="m 40.366494,60.353273 c 0.407604,0.83063 0.814946,1.660993 1.222021,2.491094 0.407077,0.830101 1.821958,1.570897 2.73254,2.355951" inkscape:path-effect="#path-effect1583" class="st7" d="
		M64.7,118.4c0.7,2.5,1.9,4.9,3.5,7.1c2,2.8,4.7,5.1,7.7,6.7"/>
	
		<path id="path1585" inkscape:original-d="m 48.606228,60.402485 c -0.442201,0.83099 -0.884664,1.661716 -1.327394,2.492177 -0.442727,0.830461 -1.971587,1.537369 -2.957779,2.305656" inkscape:path-effect="#path-effect1587" class="st7" d="
		M88.1,118.5c-0.8,2.6-2.1,5-3.8,7.1c-2.2,2.8-5.1,5.1-8.4,6.5"/>
	
		<path id="path1589" inkscape:original-d="m 40.507658,55.91984 c 0.383846,-0.90837 0.767429,-1.817005 1.150744,-2.725904 0.383318,-0.908899 1.272323,-1.429567 1.908088,-2.144747" inkscape:path-effect="#path-effect1591" class="st7" d="
		M65.1,105.8c0.6-2.7,1.8-5.4,3.3-7.7c1.5-2.3,3.3-4.4,5.4-6.1"/>
	
		<path id="path1593" inkscape:original-d="m 45.427341,51.057029 c 0.369859,0.390327 0.838369,0.895506 1.207699,1.285301 0.369332,0.389797 0.615725,0.839218 0.923189,1.258432" inkscape:path-effect="#path-effect1595" sodipodi:nodetypes="csc" class="st7" d="
		M79.1,92c1.2,1.1,2.4,2.4,3.4,3.6c0.9,1.1,1.8,2.3,2.6,3.6"/>
	<ellipse id="path1619" class="st6" cx="76.3" cy="94.8" rx="0.7" ry="0.7"/>
</g>
</svg>
