<?xml version="1.0" encoding="utf-8"?>
<!-- Generator: Adobe Illustrator 24.1.2, SVG Export Plug-In . SVG Version: 6.00 Build 0)  -->
<svg version="1.1"
	 id="svg5" inkscape:version="1.1 (ce6663b3b7, 2021-05-25)" sodipodi:docname="card_template.svg" xmlns:inkscape="http://www.inkscape.org/namespaces/inkscape" xmlns:sodipodi="http://sodipodi.sourceforge.net/DTD/sodipodi-0.dtd" xmlns:svg="http://www.w3.org/2000/svg"
	 xmlns="http://www.w3.org/2000/svg" xmlns:xlink="http://www.w3.org/1999/xlink" x="0px" y="0px" viewBox="0 0 595.3 841.9"
	 style="enable-background:new 0 0 595.3 841.9;" xml:space="preserve">
<style type="text/css">
	.st0{fill:none;}
	.st1{fill:#5CD6F5;}
	.st2{fill:#180156;}
	.st3{fill:#5400DA;}
	.st4{fill:#EC3AF5;}
	.st5{opacity:0.64;fill:#EC3AF5;}
	.st6{opacity:0.46;fill:#3DDDF4;}
	.st7{fill:#7A15F4;}
	.st8{fill:none;stroke:#000000;stroke-width:1.5;stroke-miterlimit:11.3386;}
	.st9{opacity:0.52;fill:#7A15F4;}
	.st10{fill:none;stroke:#74E9FF;stroke-miterlimit:10;}
</style>
<sodipodi:namedview  bordercolor="#666666" borderopacity="1.0" id="namedview7" inkscape:current-layer="layer1" inkscape:cx="-325.94057" inkscape:cy="282.03148" inkscape:document-units="mm" inkscape:pagecheckerboard="0" inkscape:pageopacity="0.0" inkscape:pageshadow="2" inkscape:window-height="704" inkscape:window-maximized="1" inkscape:window-width="1366" inkscape:window-x="0" inkscape:window-y="0" inkscape:zoom="0.29606624" pagecolor="#ffffff" showgrid="false">
	</sodipodi:namedview>
<defs>
	<inkscape:path-effect  effect="spiro" id="path-effect1595" is_visible="true" lpeversion="1"></inkscape:path-effect>
	<inkscape:path-effect  effect="spiro" id="path-effect1591" is_visible="true" lpeversion="1"></inkscape:path-effect>
	<inkscape:path-effect  effect="spiro" id="path-effect1587" is_visible="true" lpeversion="1"></inkscape:path-effect>
	<inkscape:path-effect  effect="spiro" id="path-effect1583" is_visible="true" lpeversion="1"></inkscape:path-effect>
	<inkscape:path-effect  effect="spiro" id="path-effect1579" is_visible="true" lpeversion="1"></inkscape:path-effect>
	<inkscape:path-effect  effect="spiro" id="path-effect1575" is_visible="true" lpeversion="1"></inkscape:path-effect>
</defs>
<path id="rect1850" class="st0" d="M0,0L0,0L0,0z"/>
<polygon class="st1" points="32.7,0 288.1,127.8 423.5,35.9 423.5,0 "/>
<polygon class="st2" points="423.5,265.5 166.3,218.8 288.1,127.8 "/>
<polygon class="st3" points="1.3,118.5 166.3,218.8 137.8,52.6 "/>
<polygon class="st4" points="182.9,265.5 166.3,218.8 1.3,185.6 1.3,265.5 "/>
<polygon class="st5" points="288.1,127.8 267.2,0 137.8,52.6 "/>
<polygon class="st6" points="1.3,0 1.3,185.6 166.3,218.8 267.2,0 "/>
<path class="st7" d="M423.5,265.5"/>
<path class="st8" d="M423.5,265.5"/>
<polyline class="st9" points="423.5,35.9 288.1,127.8 32.7,0 166.3,218.8 288.1,127.8 166.3,218.8 182.9,265.5 423.5,265.5 "/>
<g id="g2469">
	<path id="rect193" class="st10" d="M55.8,91.7h43.4c3.1,0,5.5,2.5,5.5,5.5v29.7c0,3.1-2.5,5.5-5.5,5.5H55.8c-3.1,0-5.5-2.5-5.5-5.5
		V97.3C50.3,94.2,52.8,91.7,55.8,91.7z"/>
	<path id="path1282" class="st10" d="M50.6,105.8h15.8"/>
	<path id="path1284" class="st10" d="M50.5,118.4H66"/>
	<path id="path1286" sodipodi:nodetypes="cc" class="st10" d="M104.6,105.8H89.4"/>
	<path id="path1288" class="st10" d="M105,118.5H89.4"/>
	
		<path id="path1573" inkscape:original-d="m 40.507658,55.91984 c 0.1711,0.751639 0.341934,1.503016 0.512505,2.254129 0.170569,0.751109 -0.435514,1.453133 -0.653669,2.179304" inkscape:path-effect="#path-effect1575" class="st10" d="
		M66.4,105.8c1,2,1.5,4.2,1.5,6.4c-0.1,2.2-0.7,4.3-1.9,6.2"/>
	
		<path id="path1577" inkscape:original-d="m 48.724401,55.881732 c -0.2257,0.678564 -0.451662,1.356866 -0.677889,2.034903 -0.226226,0.678037 0.373409,1.657498 0.559716,2.48585" inkscape:path-effect="#path-effect1579" class="st10" d="
		M89.7,105.7c-1.1,1.7-1.8,3.7-1.9,5.8c-0.2,2.4,0.4,4.9,1.6,7"/>
	
		<path id="path1581" inkscape:original-d="m 40.366494,60.353273 c 0.407604,0.83063 0.814946,1.660993 1.222021,2.491094 0.407077,0.830101 1.821958,1.570897 2.73254,2.355951" inkscape:path-effect="#path-effect1583" class="st10" d="
		M66,118.4c0.7,2.5,1.9,4.9,3.5,7.1c2,2.8,4.7,5.1,7.7,6.7"/>
	
		<path id="path1585" inkscape:original-d="m 48.606228,60.402485 c -0.442201,0.83099 -0.884664,1.661716 -1.327394,2.492177 -0.442727,0.830461 -1.971587,1.537369 -2.957779,2.305656" inkscape:path-effect="#path-effect1587" class="st10" d="
		M89.4,118.5c-0.8,2.6-2.1,5-3.8,7.1c-2.2,2.8-5.1,5.1-8.4,6.5"/>
	
		<path id="path1589" inkscape:original-d="m 40.507658,55.91984 c 0.383846,-0.90837 0.767429,-1.817005 1.150744,-2.725904 0.383318,-0.908899 1.272323,-1.429567 1.908088,-2.144747" inkscape:path-effect="#path-effect1591" class="st10" d="
		M66.4,105.8c0.6-2.7,1.8-5.4,3.3-7.7s3.3-4.4,5.4-6.1"/>
	
		<path id="path1593" inkscape:original-d="m 45.427341,51.057029 c 0.369859,0.390327 0.838369,0.895506 1.207699,1.285301 0.369332,0.389797 0.615725,0.839218 0.923189,1.258432" inkscape:path-effect="#path-effect1595" sodipodi:nodetypes="csc" class="st10" d="
		M80.4,92c1.2,1.1,2.4,2.4,3.4,3.6c0.9,1.1,1.8,2.3,2.6,3.6"/>
	<ellipse id="path1619" class="st10" cx="77.6" cy="94.8" rx="0.7" ry="0.7"/>
</g>
</svg>
