<?xml version="1.0" encoding="utf-8"?>
<!-- Generator: Adobe Illustrator 24.1.2, SVG Export Plug-In . SVG Version: 6.00 Build 0)  -->
<svg version="1.1" id="Слой_1" xmlns="http://www.w3.org/2000/svg" xmlns:xlink="http://www.w3.org/1999/xlink" x="0px" y="0px"
	 viewBox="0 0 300 300" style="enable-background:new 0 0 300 300;" xml:space="preserve">
<style type="text/css">
	.st0{fill:#DADADA;}
	.st1{fill:#00983A;}
	.st2{fill:#27348B;}
	.st3{fill:#FFDE00;}
	.st4{fill:#E30613;}
</style>
<path class="st0" d="M225.6,270.7H74.4c-27.3,0-49.4-22.1-49.4-49.4V70.1c0-27.3,22.1-49.4,49.4-49.4h151.2
	c27.3,0,49.4,22.1,49.4,49.4v151.2C275,248.6,252.9,270.7,225.6,270.7z"/>
<path class="st1" d="M211.7,32.8H187v75.3h74.1V82.2C261.1,54.9,239,32.8,211.7,32.8z"/>
<path class="st2" d="M187,258.6h24.6c27.3,0,49.4-22.1,49.4-49.4v-25.9H187V258.6z"/>
<path class="st3" d="M113,32.8H88.3c-27.3,0-49.4,22.1-49.4,49.4v25.9H113V32.8z"/>
<path class="st4" d="M38.9,183.4v25.9c0,27.3,22.1,49.4,49.4,49.4H113v-75.3H38.9z"/>
</svg>
