<?xml version="1.0" encoding="utf-8"?>
<!-- Generator: Adobe Illustrator 24.1.2, SVG Export Plug-In . SVG Version: 6.00 Build 0)  -->
<svg version="1.1" id="Слой_1" xmlns="http://www.w3.org/2000/svg" xmlns:xlink="http://www.w3.org/1999/xlink" x="0px" y="0px"
	 viewBox="0 0 216 216" style="enable-background:new 0 0 216 216;" xml:space="preserve">
<style type="text/css">
	.st0{stroke:#000000;stroke-miterlimit:10;}
	.st1{fill:#FFFFFF;stroke:#000000;stroke-miterlimit:10;}
	.st2{fill:#424241;}
</style>
<polygon class="st0" points="155.8,129.2 155.8,144.9 60.2,144.9 60.2,129.2 79.7,129.2 79.7,69.3 136.3,69.3 136.3,129.2 "/>
<rect x="81.2" y="115.7" class="st1" width="53.6" height="10"/>
<rect x="89.7" y="69.3" class="st2" width="14.6" height="46.4"/>
<rect x="89.7" y="125.7" class="st2" width="14.6" height="3.5"/>
<path class="st2" d="M72.6,144.9c2.7-2.5,5.9-5.4,8.5-7.9c2.7-2.5,5.9-5.4,8.5-7.9c2.4,0,4.9,0,7.3,0c2.4,0,4.9,0,7.3,0
	c-1.4,2.6-2.8,5.2-4.3,7.9c-1.4,2.6-2.8,5.2-4.3,7.8H72.6z"/>
<path class="st0" d="M100.4,156.3"/>
<path class="st2" d="M104.3,129.2"/>
<path class="st2" d="M89.2,129.2"/>
</svg>
