<?xml version="1.0" encoding="utf-8"?>
<!-- Generator: Adobe Illustrator 24.1.2, SVG Export Plug-In . SVG Version: 6.00 Build 0)  -->
<svg version="1.1" id="Слой_1" xmlns="http://www.w3.org/2000/svg" xmlns:xlink="http://www.w3.org/1999/xlink" x="0px" y="0px"
	 viewBox="0 0 558 160" style="enable-background:new 0 0 558 160;" xml:space="preserve">
<style type="text/css">
	.st0{fill:url(#path12408-2_1_);}
	.st1{fill:url(#path12408-7_1_);}
	.st2{fill:url(#path12410_1_);}
	.st3{fill:url(#path13989_1_);}
</style>
<g id="layer1">
	
		<linearGradient id="path12408-2_1_" gradientUnits="userSpaceOnUse" x1="76.234" y1="52.8259" x2="663.2734" y2="58.6996" gradientTransform="matrix(0.75 0 0 -0.75 0.25 121.75)">
		<stop  offset="0" style="stop-color:#325FAA"/>
		<stop  offset="1" style="stop-color:#4388C8"/>
	</linearGradient>
	<path id="path12408-2" class="st0" d="M269.3,26.4l-27.7,0l-22.7,107.2l27.8,0l34.1-49.3l-10.5,49.3l27.8,0l22.7-107.2l-27.7,0
		l-34.1,49.3L269.3,26.4z"/>
	
		<linearGradient id="path12408-7_1_" gradientUnits="userSpaceOnUse" x1="76.2159" y1="54.6396" x2="663.2553" y2="60.5132" gradientTransform="matrix(0.75 0 0 -0.75 0.25 121.75)">
		<stop  offset="0" style="stop-color:#325FAA"/>
		<stop  offset="1" style="stop-color:#4388C8"/>
	</linearGradient>
	<path id="path12408-7" class="st1" d="M126.3,26.4l-27.7,0H61.3l-0.6,3.7c0,0,34.9,5.1,33.4,17.4c-5.9,28.5-18.3,86.1-18.3,86.1
		l51.4,0l0,0l13.9,0l37.5,0l0,0l27.8,0l4.5-21.3h0l18.2-85.9l-27.7,0l-18.2,85.9h-23.6l18.2-85.9l-27.7,0l-18.2,85.9h-23.6
		L126.3,26.4z"/>
	
		<linearGradient id="path12410_1_" gradientUnits="userSpaceOnUse" x1="76.2612" y1="50.1107" x2="663.3006" y2="55.9843" gradientTransform="matrix(0.75 0 0 -0.75 0.25 121.75)">
		<stop  offset="0" style="stop-color:#325FAA"/>
		<stop  offset="1" style="stop-color:#4388C8"/>
	</linearGradient>
	<path id="path12410" class="st2" d="M450.4,26.4c0,0-4.7,0.5-7.2,2.6c-2.6,2.2-4.3,6.5-4.3,6.5l-40.8,98l29.1,0.1l5.7-16.2l35,0
		l3.6,16.1l25.9,0L474.8,26.4H450.4z M455.2,55.7l8.5,39.8l-22.8,0L455.2,55.7z"/>
	
		<linearGradient id="path13989_1_" gradientUnits="userSpaceOnUse" x1="20.9089" y1="132.0584" x2="176.2298" y2="133.6125" gradientTransform="matrix(2.8346 0 0 -2.8346 -1.8346 457.378)">
		<stop  offset="0" style="stop-color:#325FAA"/>
		<stop  offset="1" style="stop-color:#4388C8"/>
	</linearGradient>
	<path id="path13989" class="st3" d="M411,26.4l-27.7,0h-51.5l-4.4,21.3h41.2l-59.4,85.9l27.8,0h51.4l4.5-21.3h-41.2L411,26.4z"/>
</g>
</svg>
