<?xml version="1.0" encoding="utf-8"?>
<!-- Generator: Adobe Illustrator 24.1.2, SVG Export Plug-In . SVG Version: 6.00 Build 0)  -->
<svg version="1.1" id="Слой_1" xmlns="http://www.w3.org/2000/svg" xmlns:xlink="http://www.w3.org/1999/xlink" x="0px" y="0px"
	 viewBox="0 0 558 160" style="enable-background:new 0 0 558 160;" xml:space="preserve">
<style type="text/css">
	.st0{enable-background:new    ;}
	.st1{fill:#9A9A9A;}
	.st2{fill:#818181;}
	.st3{fill:#AFAFAF;}
	.st4{clip-path:url(#SVGID_2_);}
	.st5{clip-path:url(#SVGID_4_);}
	.st6{fill:none;}
	.st7{font-family:'IBMPlexSans-Bold';}
	.st8{font-size:108px;}
</style>
<g>
	<g>
		<g class="st0">
			<g>
				<polygon points="175.5,103.8 162.6,96.9 162.7,35.5 175.6,42.5 				"/>
			</g>
			<g>
				<polygon class="st1" points="161.3,44.5 148.4,37.5 162.7,35.5 175.6,42.5 				"/>
			</g>
			<g>
				<polygon class="st2" points="161.2,91.1 148.3,84.1 148.4,37.5 161.3,44.5 				"/>
			</g>
			<g>
				<polygon points="159.2,42.6 146.4,35.6 164.8,33.1 177.6,40.1 				"/>
			</g>
			<g>
				<polygon points="159.2,86.1 146.4,79.1 146.4,35.6 159.2,42.6 				"/>
			</g>
			<g>
				<polygon points="118.6,111.8 105.8,104.9 162.6,96.9 175.5,103.8 				"/>
			</g>
			<g>
				<polygon points="133,64.6 120.1,57.6 120.2,41.5 133,48.5 				"/>
			</g>
			<g>
				<polygon class="st2" points="118.6,111.8 105.8,104.9 105.9,43.5 118.7,50.5 				"/>
			</g>
			<g>
				<polygon class="st3" points="161.2,91.1 161.3,44.5 175.6,42.5 175.5,103.8 118.6,111.8 118.7,50.5 133,48.5 133,64.6 				"/>
				<g class="st0">
					<g>
						<defs>
							<polygon id="SVGID_1_" points="161.2,91.1 161.3,44.5 175.6,42.5 175.5,103.8 118.6,111.8 118.7,50.5 133,48.5 133,64.6 
															"/>
						</defs>
						<clipPath id="SVGID_2_">
							<use xlink:href="#SVGID_1_"  style="overflow:visible;"/>
						</clipPath>
						<g class="st4">
							<g>
								<g>
									<g>
										<defs>
											<polyline id="SVGID_3_" points="175.5,103.8 118.6,111.8 118.7,50.5 133,48.5 133,64.6 161.2,91.1 161.3,44.5 
												175.6,42.5 175.5,103.8 											"/>
										</defs>
										<clipPath id="SVGID_4_">
											<use xlink:href="#SVGID_3_"  style="overflow:visible;"/>
										</clipPath>
										<g class="st5">
											
												<image style="overflow:visible;enable-background:new    ;" width="103" height="125" xlink:href="ADADC7B8.png"  transform="matrix(0.5574 0 0 0.5574 118.582 42.5511)">
											</image>
										</g>
									</g>
								</g>
							</g>
						</g>
					</g>
				</g>
			</g>
			<g>
				<polygon class="st1" points="118.7,50.5 105.9,43.5 120.2,41.5 133,48.5 				"/>
			</g>
			<g>
				<path d="M159.2,42.6l18.3-2.6l-0.1,65.7l-60.8,8.6l0.1-65.7L135,46l-0.1,17.3l24.2,22.8L159.2,42.6z M175.5,103.8l0.1-61.4
					l-14.3,2l-0.1,46.6L133,64.6l0.1-16.1l-14.3,2l-0.1,61.4L175.5,103.8"/>
			</g>
			<g>
				<polygon points="116.6,114.3 103.7,107.3 103.9,41.6 116.7,48.6 				"/>
			</g>
			<g>
				<polygon points="116.7,48.6 103.9,41.6 122.1,39.1 135,46 				"/>
			</g>
		</g>
	</g>
</g>
<rect x="185.7" y="31.4" class="st6" width="335.8" height="97.2"/>
<text transform="matrix(1 0 0 1 185.686 111.3055)" class="st7 st8">ШИZA</text>
</svg>
