<svg id="svg5" xmlns="http://www.w3.org/2000/svg" viewBox="0 0 423.7 267"><defs><style>.cls-1,.cls-2,.cls-3,.cls-4{fill:none;stroke:#000;}.cls-1,.cls-2{stroke-miterlimit:11.34;}.cls-1,.cls-3{stroke-width:1.5px;}.cls-2{stroke-width:0.75px;}.cls-3{stroke-miterlimit:3;}.cls-4{stroke-linecap:round;stroke-miterlimit:8;stroke-width:16px;stroke-dasharray:85.53 85.53;}</style></defs><g id="g2469"><path id="rect193" class="cls-1" d="M104.2,144.4h43.4a5.48,5.48,0,0,1,5.5,5.5v29.7a5.48,5.48,0,0,1-5.5,5.5H104.2a5.48,5.48,0,0,1-5.5-5.5V150A5.57,5.57,0,0,1,104.2,144.4Z" transform="translate(-48.95 -51.95)"/><path id="path1282" class="cls-2" d="M99,158.5h15.8" transform="translate(-48.95 -51.95)"/><path id="path1284" class="cls-2" d="M98.9,171.1h15.5" transform="translate(-48.95 -51.95)"/><path id="path1286" class="cls-2" d="M153,158.5H137.8" transform="translate(-48.95 -51.95)"/><path id="path1288" class="cls-2" d="M153.4,171.2H137.8" transform="translate(-48.95 -51.95)"/><path id="path1573" class="cls-2" d="M114.8,158.5a14.32,14.32,0,0,1,1.5,6.4,12.51,12.51,0,0,1-1.9,6.2" transform="translate(-48.95 -51.95)"/><path id="path1577" class="cls-2" d="M138.1,158.4a11.75,11.75,0,0,0-1.9,5.8,12.27,12.27,0,0,0,1.6,7" transform="translate(-48.95 -51.95)"/><path id="path1581" class="cls-2" d="M114.4,171.1a23,23,0,0,0,11.2,13.8" transform="translate(-48.95 -51.95)"/><path id="path1585" class="cls-2" d="M137.8,171.2a21.19,21.19,0,0,1-3.8,7.1,21.45,21.45,0,0,1-8.4,6.5" transform="translate(-48.95 -51.95)"/><path id="path1589" class="cls-2" d="M114.8,158.5a23.94,23.94,0,0,1,3.3-7.7,26.28,26.28,0,0,1,5.4-6.1" transform="translate(-48.95 -51.95)"/><path id="path1593" class="cls-2" d="M128.8,144.7a38.22,38.22,0,0,1,3.4,3.6,33.2,33.2,0,0,1,2.6,3.6" transform="translate(-48.95 -51.95)"/><circle id="path1619" class="cls-1" cx="77.05" cy="95.55" r="0.7"/></g><rect id="rect1727" class="cls-1" x="0.75" y="0.75" width="422.2" height="265.5"/><path id="rect1850" class="cls-3" d="M0,0Z" transform="translate(-48.95 -51.95)"/><path class="cls-4" d="M336.06,85c-19.16,0-28.66,19.75-28.66,29.7s9.5,29.7,28.66,29.7c28.66,0,47.67-59.4,76.33-59.4,19.16,0,28.66,19.75,28.66,29.7s-9.5,29.7-28.66,29.7C383.73,144.4,364.72,85,336.06,85Z" transform="translate(-48.95 -51.95)"/></svg>