<?xml version="1.0" encoding="utf-8"?>
<!-- Generator: Adobe Illustrator 24.1.2, SVG Export Plug-In . SVG Version: 6.00 Build 0)  -->
<svg version="1.1"
	 id="svg5" inkscape:version="1.1 (ce6663b3b7, 2021-05-25)" sodipodi:docname="card_template.svg" xmlns:inkscape="http://www.inkscape.org/namespaces/inkscape" xmlns:sodipodi="http://sodipodi.sourceforge.net/DTD/sodipodi-0.dtd" xmlns:svg="http://www.w3.org/2000/svg"
	 xmlns="http://www.w3.org/2000/svg" xmlns:xlink="http://www.w3.org/1999/xlink" x="0px" y="0px" viewBox="0 0 595.3 841.9"
	 style="enable-background:new 0 0 595.3 841.9;" xml:space="preserve">
<style type="text/css">
	.st0{fill:#0E0E0E;stroke:#000000;stroke-width:1.5;stroke-miterlimit:11.3386;}
	.st1{fill:none;stroke:#000000;stroke-width:1.5;stroke-miterlimit:3;}
	.st2{fill:none;stroke:#5B5B5B;stroke-width:1.5;stroke-miterlimit:11.3386;}
	.st3{fill:#666666;stroke:#000000;stroke-width:1.5;stroke-miterlimit:11.3386;}
	.st4{fill:#666666;stroke:#000000;stroke-width:0.75;stroke-miterlimit:11.3386;}
</style>
<sodipodi:namedview  bordercolor="#666666" borderopacity="1.0" id="namedview7" inkscape:current-layer="layer1" inkscape:cx="-325.94057" inkscape:cy="282.03148" inkscape:document-units="mm" inkscape:pagecheckerboard="0" inkscape:pageopacity="0.0" inkscape:pageshadow="2" inkscape:window-height="704" inkscape:window-maximized="1" inkscape:window-width="1366" inkscape:window-x="0" inkscape:window-y="0" inkscape:zoom="0.29606624" pagecolor="#ffffff" showgrid="false">
	</sodipodi:namedview>
<defs>
	<inkscape:path-effect  effect="spiro" id="path-effect1595" is_visible="true" lpeversion="1"></inkscape:path-effect>
	<inkscape:path-effect  effect="spiro" id="path-effect1591" is_visible="true" lpeversion="1"></inkscape:path-effect>
	<inkscape:path-effect  effect="spiro" id="path-effect1587" is_visible="true" lpeversion="1"></inkscape:path-effect>
	<inkscape:path-effect  effect="spiro" id="path-effect1583" is_visible="true" lpeversion="1"></inkscape:path-effect>
	<inkscape:path-effect  effect="spiro" id="path-effect1579" is_visible="true" lpeversion="1"></inkscape:path-effect>
	<inkscape:path-effect  effect="spiro" id="path-effect1575" is_visible="true" lpeversion="1"></inkscape:path-effect>
</defs>
<rect id="rect1727" x="49.7" y="52.7" class="st0" width="422.2" height="265.5"/>
<polygon id="rect1850" class="st1" points="0,0 0,0 0,0 "/>
<path class="st2" d="M17.5,44.3l37.5,103.8c4.1,11.3,2.3,23.9-4.8,33.7l-41,56.4c-14.3,19.7-10.4,47.1,8.8,62l51,39.6"/>
<path class="st2" d="M32.4,44.3l37.5,103.8c4.1,11.3,2.3,23.9-4.8,33.7l-41,56.4c-14.3,19.7-10.4,47.1,8.8,62l51,39.6"/>
<path class="st2" d="M47.2,44.3l37.5,103.8c4.1,11.3,2.3,23.9-4.8,33.7l-41,56.4c-14.3,19.7-10.4,47.1,8.8,62l51,39.6"/>
<path class="st2" d="M62.9,44.3l37.5,103.8c4.1,11.3,2.3,23.9-4.8,33.7l-41,56.4c-14.3,19.7-10.4,47.1,8.8,62l51,39.6"/>
<path class="st2" d="M62.9,44.3l37.5,103.8c4.1,11.3,2.3,23.9-4.8,33.7l-41,56.4c-14.3,19.7-10.4,47.1,8.8,62l51,39.6"/>
<path class="st2" d="M77.9,44.3l37.5,103.8c4.1,11.3,2.3,23.9-4.8,33.7l-41,56.4c-14.3,19.7-10.4,47.1,8.8,62l51,39.6"/>
<path class="st2" d="M92.7,44.3l37.5,103.8c4.1,11.3,2.3,23.9-4.8,33.7l-41,56.4c-14.3,19.7-10.4,47.1,8.8,62l51,39.6"/>
<path class="st2" d="M108.4,44.3l37.5,103.8c4.1,11.3,2.3,23.9-4.8,33.7l-41,56.4c-14.3,19.7-10.4,47.1,8.8,62l51,39.6"/>
<path class="st2" d="M108.4,44.3l37.5,103.8c4.1,11.3,2.3,23.9-4.8,33.7l-41,56.4c-14.3,19.7-10.4,47.1,8.8,62l51,39.6"/>
<path class="st2" d="M123.4,44.3l37.5,103.8c4.1,11.3,2.3,23.9-4.8,33.7l-41,56.4c-14.3,19.7-10.4,47.1,8.8,62l51,39.6"/>
<path class="st2" d="M138.2,44.3l37.5,103.8c4.1,11.3,2.3,23.9-4.8,33.7l-41,56.4c-14.3,19.7-10.4,47.1,8.8,62l51,39.6"/>
<path class="st2" d="M153.9,44.3l37.5,103.8c4.1,11.3,2.3,23.9-4.8,33.7l-41,56.4c-14.3,19.7-10.4,47.1,8.8,62l51,39.6"/>
<path class="st2" d="M153.9,44.3l37.5,103.8c4.1,11.3,2.3,23.9-4.8,33.7l-41,56.4c-14.3,19.7-10.4,47.1,8.8,62l51,39.6"/>
<path class="st2" d="M168.9,44.3l37.5,103.8c4.1,11.3,2.3,23.9-4.8,33.7l-41,56.4c-14.3,19.7-10.4,47.1,8.8,62l51,39.6"/>
<path class="st2" d="M183.6,44.3l37.5,103.8c4.1,11.3,2.3,23.9-4.8,33.7l-41,56.4c-14.3,19.7-10.4,47.1,8.8,62l51,39.6"/>
<path class="st2" d="M199.4,44.3l37.5,103.8c4.1,11.3,2.3,23.9-4.8,33.7l-41,56.4c-14.3,19.7-10.4,47.1,8.8,62l51,39.6"/>
<path class="st2" d="M199.3,44.3l37.5,103.8c4.1,11.3,2.3,23.9-4.8,33.7l-41,56.4c-14.3,19.7-10.4,47.1,8.8,62l51,39.6"/>
<path class="st2" d="M214.3,44.3l37.5,103.8c4.1,11.3,2.3,23.9-4.8,33.7l-41,56.4c-14.3,19.7-10.4,47.1,8.8,62l51,39.6"/>
<path class="st2" d="M229.1,44.3l37.5,103.8c4.1,11.3,2.3,23.9-4.8,33.7l-41,56.4c-14.3,19.7-10.4,47.1,8.8,62l51,39.6"/>
<path class="st2" d="M244.8,44.3l37.5,103.8c4.1,11.3,2.3,23.9-4.8,33.7l-41,56.4c-14.3,19.7-10.4,47.1,8.8,62l51,39.6"/>
<path class="st2" d="M259.8,44.3l37.5,103.8c4.1,11.3,2.3,23.9-4.8,33.7l-41,56.4c-14.3,19.7-10.4,47.1,8.8,62l51,39.6"/>
<path class="st2" d="M274.6,44.3l37.5,103.8c4.1,11.3,2.3,23.9-4.8,33.7l-41,56.4c-14.3,19.7-10.4,47.1,8.8,62l51,39.6"/>
<path class="st2" d="M290.3,44.3l37.5,103.8c4.1,11.3,2.3,23.9-4.8,33.7l-41,56.4c-14.3,19.7-10.4,47.1,8.8,62l51,39.6"/>
<path class="st2" d="M305.3,44.3l37.5,103.8c4.1,11.3,2.3,23.9-4.8,33.7l-41,56.4c-14.3,19.7-10.4,47.1,8.8,62l51,39.6"/>
<path class="st2" d="M320.1,44.3l37.5,103.8c4.1,11.3,2.3,23.9-4.8,33.7l-41,56.4c-14.3,19.7-10.4,47.1,8.8,62l51,39.6"/>
<path class="st2" d="M335.8,44.3l37.5,103.8c4.1,11.3,2.3,23.9-4.8,33.7l-41,56.4c-14.3,19.7-10.4,47.1,8.8,62l51,39.6"/>
<path class="st2" d="M350.8,44.3l37.5,103.8c4.1,11.3,2.3,23.9-4.8,33.7l-41,56.4c-14.3,19.7-10.4,47.1,8.8,62l51,39.6"/>
<path class="st2" d="M365.5,44.3L403,148.1c4.1,11.3,2.3,23.9-4.8,33.7l-41,56.4c-14.3,19.7-10.4,47.1,8.8,62l51,39.6"/>
<path class="st2" d="M380.6,44.3l37.5,103.8c4.1,11.3,2.3,23.9-4.8,33.7l-41,56.4c-14.3,19.7-10.4,47.1,8.8,62l51,39.6"/>
<path class="st2" d="M380.2,44.3l37.5,103.8c4.1,11.3,2.3,23.9-4.8,33.7l-41,56.4c-14.3,19.7-10.4,47.1,8.8,62l51,39.6"/>
<path class="st2" d="M395,44.3l37.5,103.8c4.1,11.3,2.3,23.9-4.8,33.7l-41,56.4c-14.3,19.7-10.4,47.1,8.8,62l51,39.6"/>
<path class="st2" d="M410.7,44.3l37.5,103.8c4.1,11.3,2.3,23.9-4.8,33.7l-41,56.4c-14.3,19.7-10.4,47.1,8.8,62l51,39.6"/>
<path class="st2" d="M410.7,44.3l37.5,103.8c4.1,11.3,2.3,23.9-4.8,33.7l-41,56.4c-14.3,19.7-10.4,47.1,8.8,62l51,39.6"/>
<path class="st2" d="M425.5,44.3L463,148.1c4.1,11.3,2.3,23.9-4.8,33.7l-41,56.4c-14.3,19.7-10.4,47.1,8.8,62l51,39.6"/>
<path class="st2" d="M441.2,44.3l37.5,103.8c4.1,11.3,2.3,23.9-4.8,33.7l-41,56.4c-14.3,19.7-10.4,47.1,8.8,62l51,39.6"/>
<path class="st2" d="M441.2,44.3l37.5,103.8c4.1,11.3,2.3,23.9-4.8,33.7l-41,56.4c-14.3,19.7-10.4,47.1,8.8,62l51,39.6"/>
<path class="st2" d="M456,44.3l37.5,103.8c4.1,11.3,2.3,23.9-4.8,33.7l-41,56.4c-14.3,19.7-10.4,47.1,8.8,62l51,39.6"/>
<path class="st2" d="M471.7,44.3l37.5,103.8c4.1,11.3,2.3,23.9-4.8,33.7l-41,56.4c-14.3,19.7-10.4,47.1,8.8,62l51,39.6"/>
<g id="g2469">
	<path id="rect193" class="st3" d="M104.2,144.4h43.4c3.1,0,5.5,2.5,5.5,5.5v29.7c0,3.1-2.5,5.5-5.5,5.5h-43.4
		c-3.1,0-5.5-2.5-5.5-5.5V150C98.7,146.9,101.2,144.4,104.2,144.4z"/>
	<path id="path1282" class="st4" d="M99,158.5h15.8"/>
	<path id="path1284" class="st4" d="M98.9,171.1h15.5"/>
	<path id="path1286" sodipodi:nodetypes="cc" class="st4" d="M153,158.5l-15.2,0"/>
	<path id="path1288" class="st4" d="M153.4,171.2h-15.6"/>
	
		<path id="path1573" inkscape:original-d="m 40.507658,55.91984 c 0.1711,0.751639 0.341934,1.503016 0.512505,2.254129 0.170569,0.751109 -0.435514,1.453133 -0.653669,2.179304" inkscape:path-effect="#path-effect1575" class="st4" d="
		M114.8,158.5c1,2,1.5,4.2,1.5,6.4c-0.1,2.2-0.7,4.3-1.9,6.2"/>
	
		<path id="path1577" inkscape:original-d="m 48.724401,55.881732 c -0.2257,0.678564 -0.451662,1.356866 -0.677889,2.034903 -0.226226,0.678037 0.373409,1.657498 0.559716,2.48585" inkscape:path-effect="#path-effect1579" class="st4" d="
		M138.1,158.4c-1.1,1.7-1.8,3.7-1.9,5.8c-0.2,2.4,0.4,4.9,1.6,7"/>
	
		<path id="path1581" inkscape:original-d="m 40.366494,60.353273 c 0.407604,0.83063 0.814946,1.660993 1.222021,2.491094 0.407077,0.830101 1.821958,1.570897 2.73254,2.355951" inkscape:path-effect="#path-effect1583" class="st4" d="
		M114.4,171.1c0.7,2.5,1.9,4.9,3.5,7.1c2,2.8,4.7,5.1,7.7,6.7"/>
	
		<path id="path1585" inkscape:original-d="m 48.606228,60.402485 c -0.442201,0.83099 -0.884664,1.661716 -1.327394,2.492177 -0.442727,0.830461 -1.971587,1.537369 -2.957779,2.305656" inkscape:path-effect="#path-effect1587" class="st4" d="
		M137.8,171.2c-0.8,2.6-2.1,5-3.8,7.1c-2.2,2.8-5.1,5.1-8.4,6.5"/>
	
		<path id="path1589" inkscape:original-d="m 40.507658,55.91984 c 0.383846,-0.90837 0.767429,-1.817005 1.150744,-2.725904 0.383318,-0.908899 1.272323,-1.429567 1.908088,-2.144747" inkscape:path-effect="#path-effect1591" class="st4" d="
		M114.8,158.5c0.6-2.7,1.8-5.4,3.3-7.7c1.5-2.3,3.3-4.4,5.4-6.1"/>
	
		<path id="path1593" inkscape:original-d="m 45.427341,51.057029 c 0.369859,0.390327 0.838369,0.895506 1.207699,1.285301 0.369332,0.389797 0.615725,0.839218 0.923189,1.258432" inkscape:path-effect="#path-effect1595" sodipodi:nodetypes="csc" class="st4" d="
		M128.8,144.7c1.2,1.1,2.4,2.4,3.4,3.6c0.9,1.1,1.8,2.3,2.6,3.6"/>
	<ellipse id="path1619" class="st3" cx="126" cy="147.5" rx="0.7" ry="0.7"/>
</g>
</svg>
