<?xml version="1.0" encoding="utf-8"?>
<!-- Generator: Adobe Illustrator 24.1.2, SVG Export Plug-In . SVG Version: 6.00 Build 0)  -->
<svg version="1.1"
	 id="svg5" inkscape:version="1.1 (ce6663b3b7, 2021-05-25)" sodipodi:docname="card_template.svg" xmlns:inkscape="http://www.inkscape.org/namespaces/inkscape" xmlns:sodipodi="http://sodipodi.sourceforge.net/DTD/sodipodi-0.dtd" xmlns:svg="http://www.w3.org/2000/svg"
	 xmlns="http://www.w3.org/2000/svg" xmlns:xlink="http://www.w3.org/1999/xlink" x="0px" y="0px" viewBox="0 0 595.3 841.9"
	 style="enable-background:new 0 0 595.3 841.9;" xml:space="preserve">
<style type="text/css">
	.st0{fill:#CE3A5A;}
	.st1{fill:none;stroke:#000000;stroke-width:1.5;stroke-miterlimit:3;}
	.st2{fill:#9E2337;}
	.st3{fill:#C51E3F;}
	.st4{fill:url(#rect193_1_);stroke:#CE1A5A;stroke-width:1.5;stroke-miterlimit:11.3386;}
	.st5{fill:url(#path1282_1_);stroke:#CE1A5A;stroke-width:0.75;stroke-miterlimit:11.3386;}
	.st6{fill:url(#path1284_1_);stroke:#CE1A5A;stroke-width:0.75;stroke-miterlimit:11.3386;}
	.st7{fill:url(#path1286_1_);stroke:#CE1A5A;stroke-width:0.75;stroke-miterlimit:11.3386;}
	.st8{fill:url(#path1288_1_);stroke:#CE1A5A;stroke-width:0.75;stroke-miterlimit:11.3386;}
	.st9{fill:url(#path1573_1_);stroke:#CE1A5A;stroke-width:0.75;stroke-miterlimit:11.3386;}
	.st10{fill:url(#path1577_1_);stroke:#CE1A5A;stroke-width:0.75;stroke-miterlimit:11.3386;}
	.st11{fill:url(#path1581_1_);stroke:#CE1A5A;stroke-width:0.75;stroke-miterlimit:11.3386;}
	.st12{fill:url(#path1585_1_);stroke:#CE1A5A;stroke-width:0.75;stroke-miterlimit:11.3386;}
	.st13{fill:url(#path1589_1_);stroke:#CE1A5A;stroke-width:0.75;stroke-miterlimit:11.3386;}
	.st14{fill:url(#path1593_1_);stroke:#CE1A5A;stroke-width:0.75;stroke-miterlimit:11.3386;}
	.st15{fill:url(#path1619_1_);stroke:#CE1A5A;stroke-width:1.5;stroke-miterlimit:11.3386;}
</style>
<sodipodi:namedview  bordercolor="#666666" borderopacity="1.0" id="namedview7" inkscape:current-layer="layer1" inkscape:cx="-325.94057" inkscape:cy="282.03148" inkscape:document-units="mm" inkscape:pagecheckerboard="0" inkscape:pageopacity="0.0" inkscape:pageshadow="2" inkscape:window-height="704" inkscape:window-maximized="1" inkscape:window-width="1366" inkscape:window-x="0" inkscape:window-y="0" inkscape:zoom="0.29606624" pagecolor="#ffffff" showgrid="false">
	</sodipodi:namedview>
<defs>
	<inkscape:path-effect  effect="spiro" id="path-effect1595" is_visible="true" lpeversion="1"></inkscape:path-effect>
	<inkscape:path-effect  effect="spiro" id="path-effect1591" is_visible="true" lpeversion="1"></inkscape:path-effect>
	<inkscape:path-effect  effect="spiro" id="path-effect1587" is_visible="true" lpeversion="1"></inkscape:path-effect>
	<inkscape:path-effect  effect="spiro" id="path-effect1583" is_visible="true" lpeversion="1"></inkscape:path-effect>
	<inkscape:path-effect  effect="spiro" id="path-effect1579" is_visible="true" lpeversion="1"></inkscape:path-effect>
	<inkscape:path-effect  effect="spiro" id="path-effect1575" is_visible="true" lpeversion="1"></inkscape:path-effect>
</defs>
<rect id="rect1727" class="st0" width="422.2" height="265.5"/>
<polygon id="rect1850" class="st1" points="0,0 0,0 0,0 "/>
<rect class="st2" width="30" height="30"/>
<rect y="30" class="st3" width="30" height="30"/>
<rect x="30" y="30" class="st0" width="30" height="30"/>
<rect x="30" y="0" class="st3" width="30" height="30"/>
<rect x="60" y="0" class="st0" width="30" height="30"/>
<rect x="60" y="30" class="st2" width="30" height="30"/>
<rect y="60" class="st2" width="30" height="30"/>
<rect y="90" class="st3" width="30" height="30"/>
<rect x="30" y="90" class="st0" width="30" height="30"/>
<rect x="30" y="60" class="st3" width="30" height="30"/>
<rect x="60" y="60" class="st0" width="30" height="30"/>
<rect x="60" y="90" class="st2" width="30" height="30"/>
<rect y="120" class="st2" width="30" height="30"/>
<rect y="150" class="st3" width="30" height="30"/>
<rect x="30" y="150" class="st0" width="30" height="30"/>
<rect x="30" y="120" class="st3" width="30" height="30"/>
<rect x="60" y="120" class="st0" width="30" height="30"/>
<rect x="90" y="0" class="st2" width="30" height="30"/>
<rect x="90" y="30" class="st3" width="30" height="30"/>
<rect x="120" y="30" class="st0" width="30" height="30"/>
<rect x="120" y="0" class="st3" width="30" height="30"/>
<rect x="150" y="0" class="st0" width="30" height="30"/>
<rect x="150" y="30" class="st2" width="30" height="30"/>
<rect x="90" y="60" class="st2" width="30" height="30"/>
<rect x="90" y="90" class="st3" width="30" height="30"/>
<rect x="120" y="90" class="st0" width="30" height="30"/>
<rect x="120" y="60" class="st3" width="30" height="30"/>
<rect x="150" y="60" class="st0" width="30" height="30"/>
<g id="g2469">
	<linearGradient id="rect193_1_" gradientUnits="userSpaceOnUse" x1="48.9814" y1="112.1252" x2="103.4101" y2="112.1252">
		<stop  offset="0" style="stop-color:#FFFF00"/>
		<stop  offset="1" style="stop-color:#FF9D00"/>
	</linearGradient>
	<path id="rect193" class="st4" d="M54.5,91.7h43.4c3.1,0,5.5,2.5,5.5,5.5V127c0,3.1-2.5,5.5-5.5,5.5H54.5c-3.1,0-5.5-2.5-5.5-5.5
		V97.3C49,94.2,51.5,91.7,54.5,91.7z"/>
	<linearGradient id="path1282_1_" gradientUnits="userSpaceOnUse" x1="49.2832" y1="105.8121" x2="65.1124" y2="105.8121">
		<stop  offset="0" style="stop-color:#FFFF00"/>
		<stop  offset="1" style="stop-color:#FF9D00"/>
	</linearGradient>
	<path id="path1282" class="st5" d="M49.3,105.8h15.8"/>
	<linearGradient id="path1284_1_" gradientUnits="userSpaceOnUse" x1="49.1879" y1="118.3793" x2="64.7122" y2="118.3793">
		<stop  offset="0" style="stop-color:#FFFF00"/>
		<stop  offset="1" style="stop-color:#FF9D00"/>
	</linearGradient>
	<path id="path1284" class="st6" d="M49.2,118.4h15.5"/>
	<linearGradient id="path1286_1_" gradientUnits="userSpaceOnUse" x1="88.0853" y1="105.8019" x2="103.2679" y2="105.8019">
		<stop  offset="0" style="stop-color:#FFFF00"/>
		<stop  offset="1" style="stop-color:#FF9D00"/>
	</linearGradient>
	<path id="path1286" sodipodi:nodetypes="cc" class="st7" d="M103.3,105.8l-15.2,0"/>
	<linearGradient id="path1288_1_" gradientUnits="userSpaceOnUse" x1="88.0689" y1="118.5188" x2="103.6427" y2="118.5188">
		<stop  offset="0" style="stop-color:#FFFF00"/>
		<stop  offset="1" style="stop-color:#FF9D00"/>
	</linearGradient>
	<path id="path1288" class="st8" d="M103.6,118.5H88.1"/>
	<linearGradient id="path1573_1_" gradientUnits="userSpaceOnUse" x1="64.7122" y1="112.0957" x2="66.5732" y2="112.0957">
		<stop  offset="0" style="stop-color:#FFFF00"/>
		<stop  offset="1" style="stop-color:#FF9D00"/>
	</linearGradient>
	
		<path id="path1573" inkscape:original-d="m 40.507658,55.91984 c 0.1711,0.751639 0.341934,1.503016 0.512505,2.254129 0.170569,0.751109 -0.435514,1.453133 -0.653669,2.179304" inkscape:path-effect="#path-effect1575" class="st9" d="
		M65.1,105.8c1,2,1.5,4.2,1.5,6.4c-0.1,2.2-0.7,4.3-1.9,6.2"/>
	<linearGradient id="path1577_1_" gradientUnits="userSpaceOnUse" x1="86.4492" y1="112.1114" x2="88.4039" y2="112.1114">
		<stop  offset="0" style="stop-color:#FFFF00"/>
		<stop  offset="1" style="stop-color:#FF9D00"/>
	</linearGradient>
	
		<path id="path1577" inkscape:original-d="m 48.724401,55.881732 c -0.2257,0.678564 -0.451662,1.356866 -0.677889,2.034903 -0.226226,0.678037 0.373409,1.657498 0.559716,2.48585" inkscape:path-effect="#path-effect1579" class="st10" d="
		M88.4,105.7c-1.1,1.7-1.8,3.7-1.9,5.8c-0.2,2.4,0.4,4.9,1.6,7"/>
	<linearGradient id="path1581_1_" gradientUnits="userSpaceOnUse" x1="64.7122" y1="125.2491" x2="75.922" y2="125.2491">
		<stop  offset="0" style="stop-color:#FFFF00"/>
		<stop  offset="1" style="stop-color:#FF9D00"/>
	</linearGradient>
	
		<path id="path1581" inkscape:original-d="m 40.366494,60.353273 c 0.407604,0.83063 0.814946,1.660993 1.222021,2.491094 0.407077,0.830101 1.821958,1.570897 2.73254,2.355951" inkscape:path-effect="#path-effect1583" class="st11" d="
		M64.7,118.4c0.7,2.5,1.9,4.9,3.5,7.1c2,2.8,4.7,5.1,7.7,6.7"/>
	<linearGradient id="path1585_1_" gradientUnits="userSpaceOnUse" x1="75.922" y1="125.3189" x2="88.0689" y2="125.3189">
		<stop  offset="0" style="stop-color:#FFFF00"/>
		<stop  offset="1" style="stop-color:#FF9D00"/>
	</linearGradient>
	
		<path id="path1585" inkscape:original-d="m 48.606228,60.402485 c -0.442201,0.83099 -0.884664,1.661716 -1.327394,2.492177 -0.442727,0.830461 -1.971587,1.537369 -2.957779,2.305656" inkscape:path-effect="#path-effect1587" class="st12" d="
		M88.1,118.5c-0.8,2.6-2.1,5-3.8,7.1c-2.2,2.8-5.1,5.1-8.4,6.5"/>
	<linearGradient id="path1589_1_" gradientUnits="userSpaceOnUse" x1="65.1124" y1="98.9088" x2="73.7831" y2="98.9088">
		<stop  offset="0" style="stop-color:#FFFF00"/>
		<stop  offset="1" style="stop-color:#FF9D00"/>
	</linearGradient>
	
		<path id="path1589" inkscape:original-d="m 40.507658,55.91984 c 0.383846,-0.90837 0.767429,-1.817005 1.150744,-2.725904 0.383318,-0.908899 1.272323,-1.429567 1.908088,-2.144747" inkscape:path-effect="#path-effect1591" class="st13" d="
		M65.1,105.8c0.6-2.7,1.8-5.4,3.3-7.7c1.5-2.3,3.3-4.4,5.4-6.1"/>
	<linearGradient id="path1593_1_" gradientUnits="userSpaceOnUse" x1="79.0579" y1="95.633" x2="85.0982" y2="95.633">
		<stop  offset="0" style="stop-color:#FFFF00"/>
		<stop  offset="1" style="stop-color:#FF9D00"/>
	</linearGradient>
	
		<path id="path1593" inkscape:original-d="m 45.427341,51.057029 c 0.369859,0.390327 0.838369,0.895506 1.207699,1.285301 0.369332,0.389797 0.615725,0.839218 0.923189,1.258432" inkscape:path-effect="#path-effect1595" sodipodi:nodetypes="csc" class="st14" d="
		M79.1,92c1.2,1.1,2.4,2.4,3.4,3.6c0.9,1.1,1.8,2.3,2.6,3.6"/>
	<linearGradient id="path1619_1_" gradientUnits="userSpaceOnUse" x1="75.6027" y1="94.8092" x2="76.9204" y2="94.8092">
		<stop  offset="0" style="stop-color:#FFFF00"/>
		<stop  offset="1" style="stop-color:#FF9D00"/>
	</linearGradient>
	<ellipse id="path1619" class="st15" cx="76.3" cy="94.8" rx="0.7" ry="0.7"/>
</g>
<rect x="180" y="0" class="st2" width="30" height="30"/>
<rect x="180" y="30" class="st3" width="30" height="30"/>
<rect x="210" y="30" class="st0" width="30" height="30"/>
<rect x="210" y="0" class="st3" width="30" height="30"/>
<rect x="240" y="0" class="st0" width="30" height="30"/>
</svg>
